<svg width="49" height="51" viewBox="0 0 49 51" fill="none" xmlns="http://www.w3.org/2000/svg">
<rect width="49" height="49.0755" rx="8" fill="#D21EFF"/>
<path d="M33.3045 37.4155H27.4388C26.3406 37.4155 25.4504 38.2906 25.4504 39.3701C25.4504 40.4497 26.3406 41.3247 27.4388 41.3247H33.3045C34.4027 41.3247 35.2929 40.4497 35.2929 39.3701C35.2929 38.2906 34.4027 37.4155 33.3045 37.4155Z" fill="white"/>
<path d="M33.3045 25.5902H27.4388C26.3406 25.5902 25.4504 26.4653 25.4504 27.5448C25.4504 28.6243 26.3406 29.4994 27.4388 29.4994H33.3045C34.4027 29.4994 35.2929 28.6243 35.2929 27.5448C35.2929 26.4653 34.4027 25.5902 33.3045 25.5902Z" fill="white"/>
<path d="M23.0384 8.73988C22.1919 8.05245 20.9386 8.16953 20.2391 9.0018L15.9438 14.1124L14.2489 12.4014C13.4829 11.6281 12.2239 11.6116 11.4371 12.3647C10.6504 13.1178 10.6336 14.3552 11.3997 15.1287L13.5327 17.282C13.5503 17.2998 13.5682 17.3172 13.5864 17.3343C14.231 17.9373 15.0912 18.2728 15.9762 18.2728C16.0521 18.2726 16.1286 18.2701 16.2049 18.265C17.1638 18.2022 18.0593 17.746 18.6645 17.0127L23.3048 11.4917C24.0043 10.6594 23.885 9.42741 23.0384 8.73988Z" fill="white"/>
<path d="M23.0384 32.5738C22.1919 31.8864 20.9385 32.0036 20.2391 32.8358L15.9426 37.9477L14.245 36.2435C13.4766 35.4722 12.2177 35.4593 11.4331 36.2146C10.6485 36.9698 10.6354 38.2074 11.4036 38.9787L13.5365 41.1198C13.5528 41.1362 13.5694 41.1523 13.5863 41.1681C14.2309 41.7712 15.0912 42.1067 15.9762 42.1067C16.0522 42.1065 16.1286 42.1041 16.2049 42.0991C17.1637 42.0363 18.0592 41.5801 18.6644 40.8468L23.3048 35.3256C24.0043 34.4934 23.885 33.2614 23.0384 32.5738Z" fill="white"/>
<path d="M33.3045 13.5695H27.4388C26.3406 13.5695 25.4504 14.4445 25.4504 15.5241C25.4504 16.6036 26.3406 17.4787 27.4388 17.4787H33.3045C34.4027 17.4787 35.2929 16.6036 35.2929 15.5241C35.2929 14.4445 34.4027 13.5695 33.3045 13.5695Z" fill="white"/>
<path d="M23.0384 20.7484C22.1919 20.0609 20.9385 20.1782 20.2391 21.0104L15.9426 26.1223L14.245 24.4181C13.4766 23.6468 12.2177 23.6339 11.4331 24.3892C10.6485 25.1444 10.6354 26.382 11.4036 27.1533L13.5365 29.2944C13.5528 29.3108 13.5694 29.3269 13.5863 29.3427C14.2309 29.9458 15.0912 30.2813 15.9762 30.2813C16.0522 30.2811 16.1286 30.2787 16.2049 30.2737C17.1637 30.2108 18.0592 29.7546 18.6644 29.0214L23.3048 23.5002C24.0043 22.668 23.885 21.436 23.0384 20.7484Z" fill="white"/>
</svg>
