<svg width="69" height="55" viewBox="0 0 69 55" fill="none" xmlns="http://www.w3.org/2000/svg">
<rect width="52.6761" height="52.6761" rx="15" fill="#FFE144"/>
<path d="M34.6174 34.4513C34.8777 34.693 35.0636 34.9254 35.1752 35.1485C35.2867 35.3716 35.3425 35.6318 35.3425 35.9293C35.3425 36.2454 35.2217 36.5614 34.98 36.8775C34.7383 37.1935 34.4036 37.3516 33.976 37.3516C33.567 37.3516 33.251 37.2586 33.0279 37.0727L31.4941 35.762L30.6017 34.9811C28.8726 36.7101 26.6881 37.5746 24.0481 37.5746C22.7653 37.5746 21.5848 37.2958 20.5065 36.738C19.4467 36.1617 18.6101 35.4087 17.9966 34.4792C17.4017 33.531 17.1042 32.527 17.1042 31.4673C17.1042 28.7158 18.4707 26.7358 21.2036 25.5273C20.8504 25.0439 20.5808 24.5792 20.3949 24.133C20.209 23.6868 20.116 23.2127 20.116 22.7107C20.116 21.7811 20.367 20.9259 20.869 20.1451C21.371 19.3456 22.0774 18.7042 22.9884 18.2208C23.918 17.7375 24.987 17.4958 26.1955 17.4958C27.4783 17.4958 28.631 17.7189 29.6535 18.1651C30.6946 18.5927 31.3918 19.1504 31.745 19.8383C31.9124 20.173 31.996 20.5355 31.996 20.9259C31.996 21.2977 31.8566 21.6138 31.5777 21.8741C31.3174 22.1158 30.9735 22.2366 30.5459 22.2366C30.0625 22.2366 29.7 22.0693 29.4583 21.7346C29.0679 21.2141 28.6031 20.8423 28.0639 20.6192C27.5434 20.3961 26.9205 20.2845 26.1955 20.2845C25.396 20.2845 24.7639 20.4983 24.2991 20.9259C23.8529 21.3535 23.6298 21.8927 23.6298 22.5434C23.6298 23.1383 23.8529 23.7425 24.2991 24.3561C24.7639 24.951 25.396 25.6389 26.1955 26.4197C26.716 26.9403 26.9763 27.2006 26.9763 27.2006C27.5712 27.8513 28.6217 28.8924 30.1276 30.3239C30.4994 29.4873 30.7597 28.567 30.9084 27.5631C30.9456 27.247 31.0665 27.0146 31.271 26.8659C31.4755 26.6986 31.8008 26.6149 32.247 26.6149C32.6746 26.6149 33.0279 26.7823 33.3067 27.1169C33.5856 27.433 33.725 27.8234 33.725 28.2882L33.6972 28.567C33.4926 29.9614 33.0743 31.2628 32.4422 32.4713C33.1859 33.122 33.911 33.782 34.6174 34.4513ZM24.829 34.4234C26.149 34.4234 27.311 33.94 28.3149 32.9732C26.4557 31.3 24.9126 29.7569 23.6856 28.3439L23.1836 27.7583C22.1797 28.0558 21.4825 28.4648 21.0921 28.9854C20.7017 29.5059 20.5065 30.1659 20.5065 30.9654C20.5065 31.9135 20.8504 32.7316 21.5383 33.4194C22.2448 34.0887 23.3417 34.4234 24.829 34.4234Z" fill="white"/>
</svg>
