<svg width="53" height="53" viewBox="0 0 53 53" fill="none" xmlns="http://www.w3.org/2000/svg">
<rect width="52.6761" height="52.6761" rx="15" fill="#1EFF78"/>
<path d="M29.6 32.562C27.6942 30.8064 25.2039 29.8145 22.5623 29.7532V26.8264C23.8499 25.3613 24.5536 23.5242 24.5536 21.5974V17.1526C24.5536 12.6572 20.7165 9 16 9C11.2835 9 7.44642 12.6572 7.44642 17.1526V21.5974C7.44642 23.5242 8.15006 25.3613 9.43773 26.8264V29.7532C6.79606 29.8145 4.30578 30.8064 2.40004 32.562C1.9359 32.9895 1.86725 33.6755 2.23815 34.1792C5.38468 38.4502 10.5294 41 16 41C21.4708 41 26.6153 38.4502 29.7618 34.179C30.1328 33.6755 30.0641 32.9895 29.6 32.562ZM10.0694 17.1526C10.0694 14.0356 12.73 11.5 16 11.5C19.2703 11.5 21.9306 14.0356 21.9306 17.1526V21.5974C21.9306 23.0552 21.3502 24.4392 20.2961 25.4941C19.165 26.6265 17.6394 27.25 16 27.25C14.3606 27.25 12.835 26.6265 11.7039 25.4944C10.6501 24.4392 10.0694 23.0552 10.0694 21.5974V17.1526ZM16 38.5C11.7846 38.5 7.79837 36.7058 5.11521 33.6497C6.44437 32.741 8.03582 32.25 9.69925 32.25H10.7492C11.4736 32.25 12.0607 31.6904 12.0607 31V28.8403C13.2605 29.4353 14.6017 29.75 16 29.75C17.3986 29.75 18.7395 29.4353 19.9393 28.8403V31C19.9393 31.6904 20.5264 32.25 21.2508 32.25H22.301C23.9642 32.25 25.5556 32.741 26.8848 33.6497C24.2019 36.7058 20.2154 38.5 16 38.5Z" fill="white"/>
<path d="M49.6 32.562C47.6942 30.8064 45.2039 29.8145 42.5623 29.7532V26.8264C43.8499 25.3613 44.5536 23.5242 44.5536 21.5974V17.1526C44.5536 12.6572 40.7165 9 36 9C31.2835 9 27.4464 12.6572 27.4464 17.1526V21.5974C27.4464 23.5242 28.1501 25.3613 29.4377 26.8264V29.7532C26.7961 29.8145 24.3058 30.8064 22.4 32.562C21.9359 32.9895 21.8672 33.6755 22.2382 34.1792C25.3847 38.4502 30.5294 41 36 41C41.4708 41 46.6153 38.4502 49.7618 34.179C50.1328 33.6755 50.0641 32.9895 49.6 32.562ZM30.0694 17.1526C30.0694 14.0356 32.73 11.5 36 11.5C39.2703 11.5 41.9306 14.0356 41.9306 17.1526V21.5974C41.9306 23.0552 41.3502 24.4392 40.2961 25.4941C39.165 26.6265 37.6394 27.25 36 27.25C34.3606 27.25 32.835 26.6265 31.7039 25.4944C30.6501 24.4392 30.0694 23.0552 30.0694 21.5974V17.1526ZM36 38.5C31.7846 38.5 27.7984 36.7058 25.1152 33.6497C26.4444 32.741 28.0358 32.25 29.6993 32.25H30.7492C31.4736 32.25 32.0607 31.6904 32.0607 31V28.8403C33.2605 29.4353 34.6017 29.75 36 29.75C37.3986 29.75 38.7395 29.4353 39.9393 28.8403V31C39.9393 31.6904 40.5264 32.25 41.2508 32.25H42.301C43.9642 32.25 45.5556 32.741 46.8848 33.6497C44.2019 36.7058 40.2154 38.5 36 38.5Z" fill="white"/>
<path d="M43.4857 39.562C41.0354 37.8064 37.8336 36.8145 34.4372 36.7532V33.8264C36.0928 32.3613 36.9975 30.5242 36.9975 28.5974V24.1526C36.9975 19.6572 32.064 16 26 16C19.936 16 15.0025 19.6572 15.0025 24.1526V28.5974C15.0025 30.5242 15.9072 32.3613 17.5628 33.8264V36.7532C14.1664 36.8145 10.9646 37.8064 8.51433 39.562C7.91758 39.9895 7.82932 40.6755 8.30619 41.1792C12.3517 45.4502 18.9664 48 26 48C33.0339 48 39.6483 45.4502 43.6938 41.179C44.1707 40.6755 44.0824 39.9895 43.4857 39.562V39.562ZM18.3749 24.1526C18.3749 21.0356 21.7957 18.5 26 18.5C30.2046 18.5 33.6251 21.0356 33.6251 24.1526V28.5974C33.6251 30.0552 32.8788 31.4392 31.5236 32.4941C30.0693 33.6265 28.1077 34.25 26 34.25C23.8923 34.25 21.9307 33.6265 20.4764 32.4944C19.1215 31.4392 18.3749 30.0552 18.3749 28.5974V24.1526ZM26 45.5C20.5801 45.5 15.4551 43.7058 12.0053 40.6497C13.7142 39.741 15.7603 39.25 17.899 39.25H19.249C20.1803 39.25 20.9352 38.6904 20.9352 38V35.8403C22.4778 36.4353 24.2022 36.75 26 36.75C27.7982 36.75 29.5222 36.4353 31.0648 35.8403V38C31.0648 38.6904 31.8197 39.25 32.751 39.25H34.1013C36.2397 39.25 38.2858 39.741 39.9947 40.6497C36.5453 43.7058 31.4199 45.5 26 45.5V45.5Z" fill="#1EFF78"/>
<ellipse cx="26" cy="26.5" rx="8" ry="8.5" fill="#1EFF78"/>
<path d="M19.5 38L21 34.5L23.5 35L31 34V38H34L38.5 40L36.5 42.5L33.5 45.5L27.5 46.5L21.5 46L16.5 44L13 40.5L14.5 39L19.5 38Z" fill="#1EFF78"/>
<path d="M39.6 39.562C37.6942 37.8064 35.2039 36.8145 32.5623 36.7532V33.8264C33.8499 32.3613 34.5536 30.5242 34.5536 28.5974V24.1526C34.5536 19.6572 30.7165 16 26 16C21.2835 16 17.4464 19.6572 17.4464 24.1526V28.5974C17.4464 30.5242 18.1501 32.3613 19.4377 33.8264V36.7532C16.7961 36.8145 14.3058 37.8064 12.4 39.562C11.9359 39.9895 11.8672 40.6755 12.2382 41.1792C15.3847 45.4502 20.5294 48 26 48C31.4708 48 36.6153 45.4502 39.7618 41.179C40.1328 40.6755 40.0641 39.9895 39.6 39.562V39.562ZM20.0694 24.1526C20.0694 21.0356 22.73 18.5 26 18.5C29.2703 18.5 31.9306 21.0356 31.9306 24.1526V28.5974C31.9306 30.0552 31.3502 31.4392 30.2961 32.4941C29.165 33.6265 27.6394 34.25 26 34.25C24.3606 34.25 22.835 33.6265 21.7039 32.4944C20.6501 31.4392 20.0694 30.0552 20.0694 28.5974V24.1526ZM26 45.5C21.7846 45.5 17.7984 43.7058 15.1152 40.6497C16.4444 39.741 18.0358 39.25 19.6993 39.25H20.7492C21.4736 39.25 22.0607 38.6904 22.0607 38V35.8403C23.2605 36.4353 24.6017 36.75 26 36.75C27.3986 36.75 28.7395 36.4353 29.9393 35.8403V38C29.9393 38.6904 30.5264 39.25 31.2508 39.25H32.301C33.9642 39.25 35.5556 39.741 36.8848 40.6497C34.2019 43.7058 30.2154 45.5 26 45.5V45.5Z" fill="white"/>
</svg>
