<svg width="49" height="50" viewBox="0 0 49 50" fill="none" xmlns="http://www.w3.org/2000/svg">
<rect width="49" height="49.0755" rx="8" fill="#FF1E8A"/>
<path d="M7.9 42H15.1C15.597 42 16 41.5522 16 41C16 40.4478 15.597 40 15.1 40H7.9C7.40298 40 7 40.4478 7 41C7 41.5522 7.40298 42 7.9 42Z" fill="white"/>
<path d="M7.9 24H15.1C15.597 24 16 23.5522 16 23C16 22.4478 15.597 22 15.1 22H7.9C7.40298 22 7 22.4478 7 23C7 23.5522 7.40298 24 7.9 24Z" fill="white"/>
<path d="M40.1154 22H18.8846C18.3961 22 18 22.4478 18 23C18 23.5522 18.3961 24 18.8846 24H40.1154C40.6039 24 41 23.5522 41 23C41 22.4478 40.6039 22 40.1154 22Z" fill="white"/>
<path d="M40.1 28H32.9C32.403 28 32 28.4478 32 29C32 29.5522 32.403 30 32.9 30H40.1C40.597 30 41 29.5522 41 29C41 28.4478 40.597 28 40.1 28Z" fill="white"/>
<path d="M29.1154 28H7.88462C7.39609 28 7 28.4478 7 29C7 29.5522 7.39609 30 7.88462 30H29.1154C29.6039 30 30 29.5522 30 29C30 28.4478 29.6039 28 29.1154 28Z" fill="white"/>
<path d="M24.1 44H7.9C7.40298 44 7 44.4478 7 45C7 45.5522 7.40298 46 7.9 46H24.1C24.597 46 25 45.5522 25 45C25 44.4478 24.597 44 24.1 44Z" fill="white"/>
<path d="M24.1 36H7.9C7.40298 36 7 36.2239 7 36.5C7 36.7761 7.40298 37 7.9 37H24.1C24.597 37 25 36.7761 25 36.5C25 36.2239 24.597 36 24.1 36Z" fill="white"/>
<path d="M40.1053 16H7.89474C7.40062 16 7 16.4478 7 17C7 17.5522 7.40062 18 7.89474 18H40.1053C40.5994 18 41 17.5522 41 17C41 16.4478 40.5994 16 40.1053 16Z" fill="white"/>
<path d="M10.3591 7.31472L11.3961 6.12949V13.0833C11.3961 13.5896 11.7551 14 12.198 14C12.6409 14 13 13.5896 13 13.0833V3.91658C13 3.54597 12.8046 3.21162 12.505 3.06973C12.2055 2.92784 11.8605 3.00662 11.631 3.26846L9.2251 6.01849C8.92122 6.37835 8.92553 6.94993 9.23489 7.30353C9.54424 7.65713 10.0443 7.66205 10.3591 7.31472Z" fill="white"/>
<path d="M38.125 44.3334H35.0792C36.325 43.3239 37.4175 42.1541 38.3254 40.8577C38.9577 39.8466 38.9731 38.5901 38.3655 37.5651C37.7802 36.5861 36.683 35.9868 35.5 36.0002C33.5671 36.0002 32 37.4927 32 39.3335C32 39.7937 32.3918 40.1668 32.875 40.1668C33.3582 40.1668 33.75 39.7937 33.75 39.3335C33.75 38.4131 34.5336 37.6669 35.5 37.6669C36.0558 37.6498 36.575 37.9289 36.8467 38.3911C37.1428 38.8961 37.1329 39.5129 36.821 40.0093C35.9157 41.2585 34.8356 42.3844 33.6116 43.3568C33.1356 43.7735 32.6738 44.1808 32.2572 44.5775C32.0073 44.8159 31.9325 45.174 32.0675 45.4853C32.2025 45.7966 32.5212 45.9996 32.875 46H38.125C38.6082 46 39 45.6269 39 45.1667C39 44.7065 38.6082 44.3334 38.125 44.3334V44.3334Z" fill="white"/>
</svg>
