<svg width="69" height="55" viewBox="0 0 69 55" fill="none" xmlns="http://www.w3.org/2000/svg">
<rect width="52.6761" height="52.6761" rx="15" fill="#FF4444"/>
<path d="M25.0273 27.2394C25.4735 27.2394 25.8454 27.3882 26.1428 27.6856C26.4403 27.9645 26.589 28.327 26.589 28.7732C26.589 29.2194 26.4403 29.5913 26.1428 29.8887C25.8454 30.1676 25.4735 30.307 25.0273 30.307H21.1231V33.9603C21.1231 34.4808 20.9465 34.9085 20.5932 35.2431C20.2586 35.5777 19.831 35.7451 19.3104 35.7451C18.7899 35.7451 18.353 35.5777 17.9997 35.2431C17.6651 34.9085 17.4977 34.4808 17.4977 33.9603V30.307H13.6772C13.231 30.307 12.8592 30.1583 12.5617 29.8608C12.2642 29.5634 12.1155 29.1915 12.1155 28.7454C12.1155 28.2992 12.2642 27.9366 12.5617 27.6577C12.8592 27.3789 13.231 27.2394 13.6772 27.2394H17.4977V23.0842C17.4977 22.5637 17.6651 22.1361 17.9997 21.8014C18.353 21.4668 18.7992 21.2994 19.3383 21.2994C19.8589 21.2994 20.2865 21.4668 20.6211 21.8014C20.9558 22.1361 21.1231 22.5637 21.1231 23.0842V27.2394H25.0273ZM30.2179 30.1118C29.7345 30.1118 29.3255 29.9538 28.9908 29.6377C28.6748 29.3217 28.5167 28.922 28.5167 28.4386C28.5167 27.9738 28.6748 27.5834 28.9908 27.2673C29.3255 26.9513 29.7345 26.7932 30.2179 26.7932H35.0702C35.5536 26.7932 35.9533 26.9606 36.2694 27.2952C36.604 27.6113 36.7714 28.011 36.7714 28.4944C36.7714 28.9592 36.604 29.3496 36.2694 29.6656C35.9533 29.9631 35.5536 30.1118 35.0702 30.1118H30.2179Z" fill="white"/>
</svg>
