<svg width="69" height="55" viewBox="0 0 69 55" fill="none" xmlns="http://www.w3.org/2000/svg">
<rect width="52.6761" height="52.6761" rx="15" fill="#FF9244"/>
<path d="M26.5 18.3281C24.0625 18.3281 22.2135 18.9948 20.9531 20.3281C19.7031 21.651 19.0781 23.599 19.0781 26.1719C19.0781 28.5052 19.5052 30.5104 20.3594 32.1875C21.224 33.8646 22.5781 35.3698 24.4219 36.7031V39H15.2031V36.4688H20.8906C19.3177 35.2604 18.1146 33.7604 17.2812 31.9688C16.4479 30.1771 16.0312 28.2135 16.0312 26.0781C16.0312 22.8698 16.9583 20.3542 18.8125 18.5312C20.6667 16.7083 23.2292 15.7969 26.5 15.7969C29.8125 15.7969 32.3906 16.7031 34.2344 18.5156C36.0781 20.3281 37 22.8385 37 26.0469C37 28.1927 36.5781 30.1667 35.7344 31.9688C34.901 33.7708 33.7083 35.2708 32.1562 36.4688H37.8281V39H28.6094V36.7031C30.4531 35.3802 31.8073 33.8698 32.6719 32.1719C33.5469 30.4635 33.9844 28.4635 33.9844 26.1719C33.9844 23.6094 33.349 21.6615 32.0781 20.3281C30.8177 18.9948 28.9583 18.3281 26.5 18.3281Z" fill="white"/>
</svg>
