<svg width="53" height="53" viewBox="0 0 53 53" fill="none" xmlns="http://www.w3.org/2000/svg">
<rect width="52.6761" height="52.6761" rx="15" fill="#E0FF1E"/>
<path d="M43.2187 24.4082C43.9273 23.7275 44.1775 22.7283 43.8718 21.7996C43.5655 20.8708 42.7675 20.2078 41.7871 20.0671L33.0705 18.8185C32.6993 18.7652 32.3785 18.5357 32.2127 18.2039L28.3158 10.4184C27.8782 9.54362 26.9901 9 26.0004 9C25.0113 9 24.1233 9.54362 23.6857 10.4184L19.788 18.2046C19.6222 18.5364 19.3007 18.766 18.9295 18.8193L10.2129 20.0678C9.23324 20.2078 8.43453 20.8715 8.12816 21.8003C7.82252 22.729 8.07266 23.7282 8.78126 24.4089L15.088 30.469C15.3569 30.7277 15.4802 31.1001 15.4167 31.4639L13.9289 40.0211C13.797 40.7744 13.9974 41.507 14.4919 42.0847C15.2603 42.9851 16.6018 43.2594 17.6745 42.7037L25.4698 38.6631C25.7956 38.4947 26.2058 38.4961 26.5309 38.6631L34.327 42.7037C34.7061 42.9005 35.1105 43 35.5279 43C36.2899 43 37.0122 42.666 37.5088 42.0847C38.0041 41.507 38.2037 40.7729 38.0718 40.0211L36.5833 31.4639C36.5198 31.0994 36.6431 30.7277 36.912 30.469L43.2187 24.4082Z" stroke="white" stroke-width="3"/>
</svg>
