<svg width="49" height="50" viewBox="0 0 49 50" fill="none" xmlns="http://www.w3.org/2000/svg">
<rect width="49" height="49.0755" rx="8" fill="#FF1E54"/>
<path d="M8.90656 18.8C9.17323 18.8 9.39723 18.896 9.57856 19.088C9.7599 19.2693 9.85056 19.4987 9.85056 19.776V29.024C9.85056 29.3013 9.74923 29.536 9.54656 29.728C9.3439 29.9093 9.09323 30 8.79456 30C8.4959 30 8.25056 29.9093 8.05856 29.728C7.86656 29.536 7.77056 29.3013 7.77056 29.024V21.44L6.77856 22.048C6.61856 22.144 6.4479 22.192 6.26656 22.192C5.9999 22.192 5.77056 22.0907 5.57856 21.888C5.39723 21.6853 5.30656 21.4613 5.30656 21.216C5.30656 21.0453 5.34923 20.8853 5.43456 20.736C5.53056 20.5867 5.65323 20.4693 5.80256 20.384L8.21856 18.944C8.3999 18.848 8.62923 18.8 8.90656 18.8ZM15.9667 30.16C15.0707 30.16 14.2974 29.92 13.6467 29.44C13.0067 28.96 12.5214 28.288 12.1907 27.424C11.86 26.5493 11.6947 25.5413 11.6947 24.4C11.6947 23.2587 11.86 22.256 12.1907 21.392C12.5214 20.5173 13.0067 19.84 13.6467 19.36C14.2974 18.88 15.0707 18.64 15.9667 18.64C16.8627 18.64 17.6307 18.88 18.2707 19.36C18.9214 19.84 19.412 20.5173 19.7427 21.392C20.0734 22.256 20.2387 23.2587 20.2387 24.4C20.2387 25.5413 20.0734 26.5493 19.7427 27.424C19.412 28.288 18.9214 28.96 18.2707 29.44C17.6307 29.92 16.8627 30.16 15.9667 30.16ZM15.9667 28.24C16.6494 28.24 17.1827 27.9147 17.5667 27.264C17.9614 26.6133 18.1587 25.6587 18.1587 24.4C18.1587 23.1413 17.9614 22.1867 17.5667 21.536C17.1827 20.8853 16.6494 20.56 15.9667 20.56C15.284 20.56 14.7454 20.8853 14.3507 21.536C13.9667 22.1867 13.7747 23.1413 13.7747 24.4C13.7747 25.6587 13.9667 26.6133 14.3507 27.264C14.7454 27.9147 15.284 28.24 15.9667 28.24ZM25.7948 30.16C24.8988 30.16 24.1255 29.92 23.4748 29.44C22.8348 28.96 22.3495 28.288 22.0188 27.424C21.6881 26.5493 21.5228 25.5413 21.5228 24.4C21.5228 23.2587 21.6881 22.256 22.0188 21.392C22.3495 20.5173 22.8348 19.84 23.4748 19.36C24.1255 18.88 24.8988 18.64 25.7948 18.64C26.6908 18.64 27.4588 18.88 28.0988 19.36C28.7495 19.84 29.2401 20.5173 29.5708 21.392C29.9015 22.256 30.0668 23.2587 30.0668 24.4C30.0668 25.5413 29.9015 26.5493 29.5708 27.424C29.2401 28.288 28.7495 28.96 28.0988 29.44C27.4588 29.92 26.6908 30.16 25.7948 30.16ZM25.7948 28.24C26.4775 28.24 27.0108 27.9147 27.3948 27.264C27.7895 26.6133 27.9868 25.6587 27.9868 24.4C27.9868 23.1413 27.7895 22.1867 27.3948 21.536C27.0108 20.8853 26.4775 20.56 25.7948 20.56C25.1121 20.56 24.5735 20.8853 24.1788 21.536C23.7948 22.1867 23.6028 23.1413 23.6028 24.4C23.6028 25.6587 23.7948 26.6133 24.1788 27.264C24.5735 27.9147 25.1121 28.24 25.7948 28.24ZM33.8149 24.88C33.3136 24.88 32.8603 24.7467 32.4549 24.48C32.0603 24.2027 31.7509 23.8293 31.5269 23.36C31.3029 22.88 31.1909 22.352 31.1909 21.776C31.1909 21.1893 31.3029 20.6613 31.5269 20.192C31.7509 19.712 32.0603 19.3387 32.4549 19.072C32.8496 18.7947 33.3029 18.656 33.8149 18.656C34.3269 18.656 34.7803 18.7947 35.1749 19.072C35.5696 19.3387 35.8736 19.712 36.0869 20.192C36.3109 20.6613 36.4229 21.1893 36.4229 21.776C36.4229 22.352 36.3056 22.88 36.0709 23.36C35.8469 23.8293 35.5323 24.2027 35.1269 24.48C34.7323 24.7467 34.2949 24.88 33.8149 24.88ZM34.0069 30.032C33.8149 30.032 33.6283 29.9573 33.4469 29.808C33.2656 29.6587 33.1749 29.472 33.1749 29.248C33.1749 29.1093 33.2283 28.9493 33.3349 28.768L39.7029 19.152C39.8949 18.896 40.1136 18.768 40.3589 18.768C40.5509 18.768 40.7376 18.8427 40.9189 18.992C41.1003 19.1413 41.1909 19.328 41.1909 19.552C41.1909 19.6907 41.1376 19.8507 41.0309 20.032L34.6629 29.648C34.4709 29.904 34.2523 30.032 34.0069 30.032ZM33.8149 23.456C34.1243 23.456 34.3696 23.3013 34.5509 22.992C34.7323 22.672 34.8229 22.2667 34.8229 21.776C34.8229 21.2747 34.7323 20.8693 34.5509 20.56C34.3803 20.2507 34.1349 20.096 33.8149 20.096C33.5056 20.096 33.2549 20.256 33.0629 20.576C32.8816 20.8853 32.7909 21.2853 32.7909 21.776C32.7909 22.2667 32.8816 22.672 33.0629 22.992C33.2443 23.3013 33.4949 23.456 33.8149 23.456ZM40.6789 30.16C40.1989 30.16 39.7563 30.0267 39.3509 29.76C38.9563 29.4827 38.6416 29.1093 38.4069 28.64C38.1723 28.16 38.0549 27.632 38.0549 27.056C38.0549 26.4693 38.1669 25.9413 38.3909 25.472C38.6149 24.992 38.9243 24.6187 39.3189 24.352C39.7136 24.0747 40.1669 23.936 40.6789 23.936C41.1909 23.936 41.6443 24.0747 42.0389 24.352C42.4336 24.6187 42.7376 24.992 42.9509 25.472C43.1749 25.9413 43.2869 26.4693 43.2869 27.056C43.2869 27.632 43.1696 28.16 42.9349 28.64C42.7109 29.1093 42.3963 29.4827 41.9909 29.76C41.5963 30.0267 41.1589 30.16 40.6789 30.16ZM40.6789 28.736C40.9883 28.736 41.2336 28.5813 41.4149 28.272C41.5963 27.952 41.6869 27.5467 41.6869 27.056C41.6869 26.5547 41.5963 26.1493 41.4149 25.84C41.2443 25.5307 40.9989 25.376 40.6789 25.376C40.3696 25.376 40.1189 25.536 39.9269 25.856C39.7456 26.1653 39.6549 26.5653 39.6549 27.056C39.6549 27.5467 39.7456 27.952 39.9269 28.272C40.1083 28.5813 40.3589 28.736 40.6789 28.736Z" fill="white"/>
</svg>
